<svg width="57" height="57" viewBox="0 0 57 57" fill="none" xmlns="http://www.w3.org/2000/svg">
<circle cx="28.5" cy="28.5" r="27.5" stroke="black" stroke-width="2"/>
<path d="M28.5 45C25.041 45 21.8936 44.001 19.0576 42.0029C18.3057 42.9268 17.3066 43.6572 16.0605 44.1943C14.8145 44.7314 13.4609 45 12 45C12.5371 45 13.0044 44.1782 13.4019 42.5347C13.7993 40.8911 14.0195 38.8662 14.0625 36.46C12.6875 33.9893 12 31.3359 12 28.5C12 25.5137 12.7358 22.7529 14.2075 20.2178C15.6792 17.6826 17.6826 15.6792 20.2178 14.2075C22.7529 12.7358 25.5137 12 28.5 12C31.4863 12 34.2471 12.7358 36.7822 14.2075C39.3174 15.6792 41.3208 17.6826 42.7925 20.2178C44.2642 22.7529 45 25.5137 45 28.5C45 31.4863 44.2642 34.2471 42.7925 36.7822C41.3208 39.3174 39.3174 41.3208 36.7822 42.7925C34.2471 44.2642 31.4863 45 28.5 45Z" fill="black"/>
</svg>
