<svg width="57" height="57" viewBox="0 0 57 57" fill="none" xmlns="http://www.w3.org/2000/svg">
<circle cx="28.5" cy="28.5" r="27.5" stroke="black" stroke-width="2"/>
<path d="M46 31.0293C46 31.2572 45.9032 31.4622 45.7095 31.6445C45.5158 31.8268 45.2196 31.9806 44.8208 32.106C44.422 32.2313 44.0119 32.3395 43.5903 32.4307C43.1688 32.5218 42.6333 32.5959 41.9839 32.6528C41.3345 32.7098 40.7648 32.7497 40.2749 32.7725C39.785 32.7952 39.1641 32.818 38.4121 32.8408C37.6602 32.8636 37.0848 32.875 36.686 32.875H30.6875V28.5H30.6533C30.6305 27.4518 30.4255 26.5404 30.0381 25.7656C30.6533 25.6061 31.2344 25.4922 31.7812 25.4238V24.3643C29.5938 23.0426 28.5 20.3083 28.5 16.1611C28.5 14.4521 29.1095 13.1647 30.3286 12.2988C31.5477 11.4329 33.1257 11 35.0625 11C36.9993 11 38.5773 11.4329 39.7964 12.2988C41.0155 13.1647 41.625 14.4521 41.625 16.1611C41.625 20.4678 40.5312 23.2363 38.3438 24.4668V25.4238C40.6452 25.7428 42.4909 26.3809 43.8809 27.3379C45.2708 28.2949 45.9772 29.5254 46 31.0293ZM25.2188 37.5918V38.5488C27.5202 38.8678 29.3659 39.5116 30.7559 40.48C32.1458 41.4484 32.8522 42.6732 32.875 44.1543C32.875 44.3822 32.7782 44.5872 32.5845 44.7695C32.3908 44.9518 32.0946 45.1056 31.6958 45.231C31.297 45.3563 30.8869 45.4645 30.4653 45.5557C30.0438 45.6468 29.5083 45.7209 28.8589 45.7778C28.2095 45.8348 27.6398 45.8804 27.1499 45.9146C26.66 45.9487 26.0391 45.9715 25.2871 45.9829C24.5352 45.9943 23.9598 46 23.561 46H20.314L18.5879 45.9829L16.7251 45.9146L15.0161 45.7778L13.4097 45.5557L12.1792 45.231L11.2905 44.7695L11 44.1543C11.0228 42.6732 11.7292 41.4484 13.1191 40.48C14.5091 39.5116 16.3548 38.8678 18.6562 38.5488V37.4893C16.4688 36.1676 15.375 33.4333 15.375 29.2861C15.375 27.5771 15.9845 26.2897 17.2036 25.4238C18.4227 24.5579 20.0007 24.125 21.9375 24.125C23.8743 24.125 25.4523 24.5579 26.6714 25.4238C27.8905 26.2897 28.5 27.5771 28.5 29.2861C28.5 33.5928 27.4062 36.3613 25.2188 37.5918Z" fill="black"/>
</svg>
