<svg width="50" height="49" viewBox="0 0 50 49" fill="none" xmlns="http://www.w3.org/2000/svg">
<path fill-rule="evenodd" clip-rule="evenodd" d="M25 27.7917C27.6522 27.7917 30.1957 26.7732 32.0711 24.9604C33.9464 23.1475 35 20.6888 35 18.125C35 15.5612 33.9464 13.1025 32.0711 11.2896C30.1957 9.47678 27.6522 8.45834 25 8.45834C22.3478 8.45834 19.8043 9.47678 17.9289 11.2896C16.0536 13.1025 15 15.5612 15 18.125C15 20.6888 16.0536 23.1475 17.9289 24.9604C19.8043 26.7732 22.3478 27.7917 25 27.7917ZM25 25.375C25.9849 25.375 26.9602 25.1875 27.8701 24.8231C28.7801 24.4588 29.6069 23.9248 30.3033 23.2515C30.9997 22.5783 31.5522 21.7791 31.9291 20.8995C32.306 20.0198 32.5 19.0771 32.5 18.125C32.5 17.1729 32.306 16.2302 31.9291 15.3505C31.5522 14.4709 30.9997 13.6717 30.3033 12.9985C29.6069 12.3253 28.7801 11.7912 27.8701 11.4269C26.9602 11.0625 25.9849 10.875 25 10.875C23.0109 10.875 21.1032 11.6388 19.6967 12.9985C18.2902 14.3581 17.5 16.2022 17.5 18.125C17.5 20.0478 18.2902 21.8919 19.6967 23.2515C21.1032 24.6112 23.0109 25.375 25 25.375Z" fill="black"/>
<path fill-rule="evenodd" clip-rule="evenodd" d="M50 24.1667C50 37.5139 38.8075 48.3333 25 48.3333C11.1925 48.3333 0 37.5139 0 24.1667C0 10.8194 11.1925 0 25 0C38.8075 0 50 10.8194 50 24.1667ZM37.0375 42.5454C33.4387 44.7537 29.2626 45.9233 25 45.9167C20.6356 45.9232 16.3643 44.6968 12.7112 42.3883C12.4112 42.0258 12.1062 41.6512 11.7987 41.2646C11.4415 40.8116 11.2486 40.2574 11.25 39.6877C11.25 38.3863 12.2175 37.2952 13.5112 37.1127C22.0675 35.9044 27.9588 36.0083 36.5263 37.155C37.1467 37.242 37.7137 37.543 38.1224 38.0025C38.5311 38.4621 38.7541 39.0491 38.75 39.6551C38.75 40.2351 38.5437 40.7982 38.1712 41.238C37.7875 41.6899 37.4088 42.1261 37.0375 42.5454ZM41.2313 39.2297C41.0312 36.9677 39.255 35.0803 36.8687 34.7613C28.0987 33.588 21.9688 33.4757 13.15 34.7215C10.75 35.0598 8.98125 36.9641 8.77125 39.2322C4.74041 35.1855 2.49206 29.7843 2.5 24.1667C2.5 12.1546 12.5737 2.41667 25 2.41667C37.4263 2.41667 47.5 12.1546 47.5 24.1667C47.508 29.7831 45.2606 35.1833 41.2313 39.2297Z" fill="black"/>
</svg>
