<svg width="63" height="63" viewBox="0 0 63 63" fill="none" xmlns="http://www.w3.org/2000/svg">
<path fill-rule="evenodd" clip-rule="evenodd" d="M54.6521 2.75625H8.34711C6.86454 2.75729 5.44299 3.3467 4.39465 4.39504C3.34631 5.44338 2.7569 6.86493 2.75586 8.3475V54.6525C2.7569 56.1351 3.34631 57.5566 4.39465 58.605C5.44299 59.6533 6.86454 60.2427 8.34711 60.2438H54.6521C56.1347 60.2427 57.5562 59.6533 58.6046 58.605C59.6529 57.5566 60.2423 56.1351 60.2434 54.6525V8.3475C60.2423 6.86493 59.6529 5.44338 58.6046 4.39504C57.5562 3.3467 56.1347 2.75729 54.6521 2.75625ZM57.8809 54.6525C57.8803 55.5087 57.54 56.3296 56.9346 56.935C56.3292 57.5404 55.5083 57.8807 54.6521 57.8812H8.34711C7.49095 57.8807 6.67001 57.5404 6.06461 56.935C5.45922 56.3296 5.11888 55.5087 5.11836 54.6525V8.3475C5.11888 7.49134 5.45922 6.6704 6.06461 6.065C6.67001 5.45961 7.49095 5.11927 8.34711 5.11875H54.6521C55.5083 5.11927 56.3292 5.45961 56.9346 6.065C57.54 6.6704 57.8803 7.49134 57.8809 8.3475V54.6525Z" fill="black"/>
<path fill-rule="evenodd" clip-rule="evenodd" d="M42.2057 36.9633C42.0506 36.9633 41.8969 36.9938 41.7536 37.0532C41.6103 37.1126 41.4801 37.1996 41.3704 37.3093C41.2607 37.419 41.1737 37.5492 41.1143 37.6925C41.055 37.8358 41.0244 37.9894 41.0244 38.1445V42.5742C41.0239 44.023 40.4481 45.4123 39.4237 46.4368C38.3992 47.4612 37.0099 48.037 35.5611 48.0375H24.485C23.0365 48.0365 21.6477 47.4605 20.6237 46.4361C19.5997 45.4117 19.0242 44.0227 19.0236 42.5742V20.4258C19.0242 18.977 19.5999 17.5877 20.6244 16.5632C21.6488 15.5388 23.0381 14.963 24.4869 14.9625H35.5592C37.008 14.963 38.3973 15.5388 39.4217 16.5632C40.4462 17.5877 41.0219 18.977 41.0225 20.4258V24.8555C41.0225 25.1688 41.1469 25.4692 41.3684 25.6907C41.59 25.9123 41.8904 26.0367 42.2037 26.0367C42.517 26.0367 42.8175 25.9123 43.039 25.6907C43.2605 25.4692 43.385 25.1688 43.385 24.8555V20.4258C43.3839 18.3509 42.5594 16.3613 41.0924 14.894C39.6254 13.4266 37.636 12.6016 35.5611 12.6H24.485C22.4098 12.601 20.4198 13.4259 18.9525 14.8933C17.4851 16.3607 16.6602 18.3506 16.6592 20.4258V42.5742C16.6607 44.6496 17.486 46.6395 18.9537 48.1069C20.4214 49.5742 22.4115 50.399 24.4869 50.4H35.5592C37.6346 50.399 39.6247 49.5742 41.0924 48.1069C42.5601 46.6395 43.3854 44.6496 43.3869 42.5742V38.1445C43.3869 37.9894 43.3564 37.8358 43.297 37.6925C43.2377 37.5492 43.1506 37.419 43.041 37.3093C42.9313 37.1996 42.801 37.1126 42.6577 37.0532C42.5144 36.9938 42.3608 36.9633 42.2057 36.9633Z" fill="black"/>
<path fill-rule="evenodd" clip-rule="evenodd" d="M47.4701 26.2356C47.2481 26.0169 46.9487 25.8948 46.637 25.8959C46.3254 25.8969 46.0268 26.0211 45.8064 26.2413C45.5859 26.4616 45.4614 26.76 45.4599 27.0716C45.4585 27.3832 45.5802 27.6828 45.7986 27.9051L48.2123 30.3188H31.1314C30.8182 30.3188 30.5177 30.4432 30.2962 30.6647C30.0746 30.8863 29.9502 31.1867 29.9502 31.5C29.9502 31.8133 30.0746 32.1137 30.2962 32.3353C30.5177 32.5568 30.8182 32.6813 31.1314 32.6813H48.2123L45.7986 35.0949C45.5802 35.3172 45.4585 35.6168 45.4599 35.9284C45.4614 36.24 45.5859 36.5384 45.8064 36.7587C46.0268 36.9789 46.3254 37.1031 46.637 37.1041C46.9487 37.1052 47.2481 36.9831 47.4701 36.7644L51.8998 32.3348C52.121 32.1133 52.2452 31.813 52.2452 31.5C52.2452 31.187 52.121 30.8867 51.8998 30.6653L47.4701 26.2356Z" fill="black"/>
</svg>
