<svg width="63" height="111" viewBox="0 0 63 111" fill="none" xmlns="http://www.w3.org/2000/svg">
<path d="M50.9591 74.1357C51.4865 74.6631 51.7501 75.3003 51.7501 76.0474C51.7501 76.7944 51.4865 77.4316 50.9591 77.959C50.4318 78.4863 49.7946 78.75 49.0475 78.75C48.3004 78.75 47.6632 78.4863 47.1359 77.959L46.3009 77.124C44.5138 78.208 42.5802 78.75 40.5001 78.75H34.8312L21.8673 75.4541L29.2501 78.75C26.1447 78.75 23.4933 77.6514 21.296 75.4541C19.0988 73.2568 21.296 48.1055 21.296 45L18.0001 61.8311L20.549 40.0122L18.0001 50.4492V45C18.0001 41.8945 19.0988 39.2432 21.296 37.0459C23.4933 34.8486 26.1447 33.75 29.2501 33.75H40.5001C43.6056 33.75 46.257 34.8486 48.4542 37.0459C50.6515 39.2432 51.7501 41.8945 51.7501 45V48.8892V56.25V67.5C51.7501 69.5801 51.2081 71.5137 50.1241 73.3008L50.9591 74.1357ZM46.1251 67.5L42.0382 45L46.3009 56.8636L42.6754 41.0229L46.1251 50.4492V45C46.1251 43.4473 45.5758 42.1216 44.4772 41.0229C43.3785 39.9243 44.2281 39.375 42.6754 39.375L47.7291 37.0459L37.5338 39.375L44.4772 34.4398L32.1285 39.375L38.7423 33.75C37.1896 33.75 26.3717 39.9243 25.2731 41.0229C24.1744 42.1216 23.6251 34.72 23.6251 36.2727V67.5C23.6251 69.0527 24.1744 70.3784 25.2731 71.4771C26.3717 72.5757 27.6974 73.125 29.2501 73.125L24.6798 70.0909L40.5001 73.125C40.9689 73.125 41.4816 73.0371 42.0382 72.8613L45.8615 75.4541L40.5001 70.9497L38.7423 69.0381L44.4772 71.4771L35.6222 66.4453C35.0948 65.918 34.8312 65.2808 34.8312 64.5337C34.8312 63.7866 35.0948 63.1494 35.6222 62.6221C36.1495 62.0947 36.7867 61.8311 37.5338 61.8311C38.2809 61.8311 38.9181 62.0947 39.4454 62.6221L45.8615 69.0381C46.0372 68.4814 46.1251 67.9688 46.1251 67.5Z" fill="black"/>
<path d="M62 90.6015V99.4258H49.1842H48.8649L48.6047 99.6108L35.3684 109.023L22.1321 99.6108L21.8719 99.4258H21.5526H9.86385L18.4543 89.0563L19.0232 88.3696L18.4059 87.7261L8.73684 77.6462L8.73684 55.6708V55.3523L8.5527 55.0925L1.21588 44.7411L7.95044 34.7642L10.4172 36.7944L12.3762 38.4068L12.044 35.8913L8.87759 11.9158L35.3684 11.9158H38.2471L35.9884 10.1312L25.9354 2.18838L62 11.6866V33.0648L56.5729 44.3206L56.3583 44.7658L56.5815 45.2066L62 55.9095L62 78.0483V90.6015Z" stroke="black" stroke-width="2"/>
</svg>
