<svg width="153" height="123" viewBox="0 0 153 123" fill="none" xmlns="http://www.w3.org/2000/svg">
<path d="M106.388 38.5043C107.391 38.5043 108.393 38.5383 109.379 38.5893C105.233 16.7203 82.4801 0 55.0207 0C24.6387 0 0 20.4926 0 45.777C0 59.5576 7.40859 71.9789 19.0143 80.373C19.4929 80.711 19.8833 81.1591 20.1524 81.6796C20.4216 82.2001 20.5615 82.7777 20.5605 83.3637C20.5605 83.7715 20.4756 84.1453 20.3736 84.5361C19.4391 87.9855 17.9607 93.508 17.8928 93.7629C17.7738 94.2047 17.6039 94.6465 17.6039 95.1053C17.6039 96.1078 18.4195 96.9404 19.4391 96.9404C19.8299 96.9404 20.1527 96.7875 20.4926 96.6006L32.54 89.6508C33.4406 89.124 34.4092 88.8012 35.4627 88.8012C36.0064 88.8012 36.5502 88.8861 37.077 89.0391C42.7014 90.6533 48.7676 91.5539 55.0377 91.5539C56.0572 91.5539 57.0598 91.5369 58.0623 91.4859C56.8559 87.9176 56.2102 84.1623 56.2102 80.2711C56.2102 57.1957 78.6738 38.5043 106.388 38.5043ZM73.3723 23.8061C77.4164 23.8061 80.7129 27.0855 80.7129 31.1297C80.7129 35.1738 77.4334 38.4533 73.3723 38.4533C69.3281 38.4533 66.0316 35.1738 66.0316 31.1297C66.0316 27.0855 69.3281 23.8061 73.3723 23.8061ZM36.6861 38.4533C32.642 38.4533 29.3455 35.1738 29.3455 31.1297C29.3455 27.0855 32.625 23.8061 36.6861 23.8061C40.7473 23.8061 44.0268 27.0855 44.0268 31.1297C44.0268 35.1738 40.7303 38.4533 36.6861 38.4533ZM136.396 109.073C146.065 102.072 152.233 91.7408 152.233 80.2371C152.233 59.1668 131.706 42.0896 106.371 42.0896C81.0527 42.0896 60.5092 59.1668 60.5092 80.2371C60.5092 101.307 81.0357 118.385 106.371 118.385C111.605 118.385 116.668 117.637 121.341 116.295C121.783 116.159 122.225 116.091 122.684 116.091C123.567 116.091 124.366 116.362 125.113 116.787L135.156 122.565C135.445 122.735 135.717 122.854 136.039 122.854C136.241 122.855 136.441 122.817 136.627 122.741C136.814 122.665 136.984 122.553 137.127 122.412C137.269 122.268 137.381 122.099 137.456 121.912C137.532 121.725 137.57 121.526 137.569 121.324C137.569 120.95 137.416 120.577 137.331 120.203C137.28 119.999 136.039 115.394 135.258 112.505C135.173 112.182 135.105 111.86 135.105 111.537C135.122 110.534 135.632 109.634 136.396 109.073ZM91.1121 74.1539C87.7307 74.1539 84.9949 71.4182 84.9949 68.0537C84.9949 64.6893 87.7307 61.9535 91.1121 61.9535C94.4936 61.9535 97.2293 64.6893 97.2293 68.0537C97.2293 71.4182 94.4766 74.1539 91.1121 74.1539ZM121.681 74.1539C118.3 74.1539 115.564 71.4182 115.564 68.0537C115.564 64.6893 118.3 61.9535 121.681 61.9535C125.062 61.9535 127.798 64.6893 127.798 68.0537C127.79 69.672 127.143 71.2215 125.997 72.3643C124.851 73.507 123.299 74.1503 121.681 74.1539Z" fill="black"/>
</svg>
